<?xml version="1.0" encoding="UTF-8" standalone="no" ?>
<!DOCTYPE svg PUBLIC "-//W3C//DTD SVG 1.1//EN" "http://www.w3.org/Graphics/SVG/1.1/DTD/svg11.dtd">
<svg xmlns="http://www.w3.org/2000/svg" xmlns:xlink="http://www.w3.org/1999/xlink" version="1.1" width="1280" height="1024" viewBox="0 0 1280 1024" xml:space="preserve">
<desc>Created with Fabric.js 5.3.0</desc>
<defs>
</defs>
<g transform="matrix(1 0 0 1 640 512)" id="background-logo"  >
<rect style="stroke: none; stroke-width: 0; stroke-dasharray: none; stroke-linecap: butt; stroke-dashoffset: 0; stroke-linejoin: miter; stroke-miterlimit: 4; fill: rgb(255,255,255); fill-opacity: 0; fill-rule: nonzero; opacity: 1;"  paint-order="stroke"  x="-640" y="-512" rx="0" ry="0" width="1280" height="1024" />
</g>
<g transform="matrix(1.9211538461538462 0 0 1.9211538461538462 640 409.17139303385477)" id="logo-logo"  >
<g style=""  paint-order="stroke"   >
		<g transform="matrix(2.3249699869944545 0 0 -2.3249699869944545 0 0)"  >
<path style="stroke: none; stroke-width: 1; stroke-dasharray: none; stroke-linecap: butt; stroke-dashoffset: 0; stroke-linejoin: miter; stroke-miterlimit: 4; fill: rgb(12,68,100); fill-rule: nonzero; opacity: 1;"  paint-order="stroke"  transform=" translate(40.5, 0)" d="M 0 0 C 0 -22.368 -18.132 -40.5 -40.5 -40.5 C -62.867 -40.5 -81 -22.368 -81 0 C -81 22.368 -62.867 40.5 -40.5 40.5 C -18.132 40.5 0 22.368 0 0" stroke-linecap="round" />
</g>
		<g transform="matrix(2.7476827726262973 0 0 -2.747682772626297 39.2121808481499 -38.48027805680533)"  >
<path style="stroke: none; stroke-width: 1; stroke-dasharray: none; stroke-linecap: butt; stroke-dashoffset: 0; stroke-linejoin: miter; stroke-miterlimit: 4; fill: rgb(241,249,253); fill-rule: nonzero; opacity: 1;"  paint-order="stroke"  transform=" translate(10.979499999999998, -7.277999999999998)" d="M 0 0 C -0.5 0.5 -1.105 0.75 -1.819 0.75 L -11.738 0.75 C -12.915 0.75 -13.879 0.946 -14.628 1.338 C -15.378 1.731 -15.966000000000001 2.239 -16.394 2.863 C -16.822 3.488 -17.116 4.157 -17.276 4.87 C -17.438 5.584 -17.536 6.261 -17.571 6.904 L -17.571 16.375999999999998 C -17.571 17.089999999999996 -17.821 17.697 -18.321 18.194999999999997 C -18.82 18.695999999999998 -19.427000000000003 18.944999999999997 -20.141000000000002 18.944999999999997 C -20.854000000000003 18.944999999999997 -21.461000000000002 18.695999999999998 -21.96 18.194999999999997 C -22.46 17.696999999999996 -22.709 17.089999999999996 -22.709 16.375999999999998 L -22.709 7.279 C -22.709 5.923 -22.485 4.558999999999999 -22.04 3.184 C -21.593999999999998 1.812 -20.942 0.5620000000000003 -20.086 -0.5619999999999998 C -19.634999999999998 -1.154 -19.13 -1.6869999999999998 -18.578999999999997 -2.166 C -18.084999999999997 -2.594 -17.557 -2.981 -16.981999999999996 -3.317 C -15.770999999999995 -4.031000000000001 -14.395999999999995 -4.389 -12.861999999999995 -4.389 L -1.8189999999999955 -4.389 C -1.1049999999999955 -4.389 -0.49999999999999556 -4.139 4.440892098500626e-15 -3.64 C 0.49900000000000444 -3.1390000000000002 0.7500000000000044 -2.5330000000000004 0.7500000000000044 -1.82 C 0.75 -1.105 0.499 -0.5 0 0" stroke-linecap="round" />
</g>
		<g transform="matrix(2.7476827726262973 0 0 -2.747682772626297 39.2121808481499 39.94353410293991)"  >
<path style="stroke: none; stroke-width: 1; stroke-dasharray: none; stroke-linecap: butt; stroke-dashoffset: 0; stroke-linejoin: miter; stroke-miterlimit: 4; fill: rgb(241,249,253); fill-rule: nonzero; opacity: 1;"  paint-order="stroke"  transform=" translate(10.9795, 7.2780000000000005)" d="M 0 0 C -0.5 -0.5 -1.105 -0.749 -1.819 -0.749 L -11.738 -0.749 C -12.915 -0.749 -13.879 -0.946 -14.628 -1.338 C -15.378 -1.73 -15.966000000000001 -2.239 -16.394 -2.862 C -16.822 -3.488 -17.116 -4.157 -17.276 -4.87 C -17.438 -5.584 -17.536 -6.261 -17.571 -6.9030000000000005 L -17.571 -16.376 C -17.571 -17.09 -17.821 -17.697000000000003 -18.321 -18.195 C -18.82 -18.695 -19.427000000000003 -18.945 -20.141000000000002 -18.945 C -20.854000000000003 -18.945 -21.461000000000002 -18.695 -21.96 -18.195 C -22.46 -17.697 -22.709 -17.09 -22.709 -16.376 L -22.709 -7.2780000000000005 C -22.709 -5.923 -22.486 -4.558 -22.04 -3.1850000000000005 C -21.593999999999998 -1.8110000000000004 -20.942 -0.5620000000000003 -20.086 0.5619999999999994 C -19.634999999999998 1.1549999999999994 -19.13 1.6879999999999993 -18.578999999999997 2.1659999999999995 C -18.084999999999997 2.5939999999999994 -17.557 2.9809999999999994 -16.981999999999996 3.3179999999999996 C -15.769999999999996 4.031 -14.395999999999995 4.388999999999999 -12.861999999999995 4.388999999999999 L -1.819 4.388999999999999 C -1.105 4.389 -0.5 4.139 0 3.639 C 0.499 3.139 0.75 2.533 0.75 1.819 C 0.75 1.106 0.499 0.499 0 0" stroke-linecap="round" />
</g>
		<g transform="matrix(2.7476827726262973 0 0 -2.747682772626297 -39.21355468953624 -38.48027805680533)"  >
<path style="stroke: none; stroke-width: 1; stroke-dasharray: none; stroke-linecap: butt; stroke-dashoffset: 0; stroke-linejoin: miter; stroke-miterlimit: 4; fill: rgb(241,249,253); fill-rule: nonzero; opacity: 1;"  paint-order="stroke"  transform=" translate(-10.981, -7.277999999999998)" d="M 0 0 C 0.5 0.5 1.106 0.749 1.82 0.75 L 11.738 0.75 C 12.916 0.75 13.879999999999999 0.946 14.629 1.338 C 15.378 1.731 15.966999999999999 2.239 16.395 2.863 C 16.822 3.489 17.117 4.157 17.278 4.87 C 17.438 5.584 17.537 6.261 17.572 6.904 L 17.572 16.375999999999998 C 17.572 17.089999999999996 17.822 17.697 18.320999999999998 18.194999999999997 C 18.820999999999998 18.694999999999997 19.427999999999997 18.944999999999997 20.141 18.944999999999997 C 20.854999999999997 18.944999999999997 21.462 18.695999999999998 21.959999999999997 18.194999999999997 C 22.459999999999997 17.696999999999996 22.709999999999997 17.089999999999996 22.709999999999997 16.375999999999998 L 22.709999999999997 7.279 C 22.709999999999997 5.923 22.487 4.558999999999999 22.041999999999998 3.184 C 21.595 1.812 20.942999999999998 0.5620000000000003 20.086999999999996 -0.5619999999999998 C 19.636999999999997 -1.154 19.130999999999997 -1.6869999999999998 18.578999999999997 -2.166 C 18.086 -2.594 17.557 -2.981 16.982999999999997 -3.317 C 15.770999999999997 -4.031000000000001 14.396999999999997 -4.389 12.861999999999997 -4.389 L 1.82 -4.389 C 1.1070000000000002 -4.389 0.5 -4.139 0.001000000000000112 -3.64 C -0.4979999999999999 -3.1390000000000002 -0.7479999999999999 -2.5330000000000004 -0.7479999999999999 -1.82 C -0.7479999999999999 -1.105 -0.4979999999999999 -0.5 1.1102230246251565e-16 0" stroke-linecap="round" />
</g>
		<g transform="matrix(2.7476827726262973 0 0 -2.747682772626297 -39.21355468953624 39.94353410293991)"  >
<path style="stroke: none; stroke-width: 1; stroke-dasharray: none; stroke-linecap: butt; stroke-dashoffset: 0; stroke-linejoin: miter; stroke-miterlimit: 4; fill: rgb(241,249,253); fill-rule: nonzero; opacity: 1;"  paint-order="stroke"  transform=" translate(-10.979999999999997, 7.2780000000000005)" d="M 0 0 C 0.499 -0.5 1.105 -0.749 1.819 -0.749 L 11.736999999999998 -0.749 C 12.915 -0.749 13.878999999999998 -0.9450000000000001 14.627999999999998 -1.338 C 15.376999999999999 -1.73 15.965999999999998 -2.239 16.394 -2.862 C 16.820999999999998 -3.488 17.115 -4.157 17.276999999999997 -4.87 C 17.438 -5.584 17.535999999999998 -6.261 17.570999999999998 -6.9030000000000005 L 17.570999999999998 -16.376 C 17.570999999999998 -17.09 17.820999999999998 -17.697000000000003 18.319999999999997 -18.195 C 18.819999999999997 -18.695 19.426999999999996 -18.945 20.139999999999997 -18.945 C 20.853999999999996 -18.945 21.461 -18.695 21.958999999999996 -18.195 C 22.458999999999996 -17.697 22.708999999999996 -17.09 22.708999999999996 -16.376 L 22.708999999999996 -7.2780000000000005 C 22.708999999999996 -5.923 22.485999999999997 -4.558 22.039999999999996 -3.1850000000000005 C 21.593999999999994 -1.8110000000000004 20.941999999999997 -0.5630000000000006 20.085999999999995 0.5629999999999997 C 19.635999999999996 1.1549999999999998 19.129999999999995 1.6879999999999997 18.577999999999996 2.1659999999999995 C 18.084999999999997 2.5939999999999994 17.555999999999997 2.9809999999999994 16.981999999999996 3.3179999999999996 C 15.770999999999995 4.032 14.395999999999995 4.388999999999999 12.860999999999995 4.388999999999999 L 1.819 4.388999999999999 C 1.105 4.389 0.499 4.139 0 3.639 C -0.499 3.139 -0.749 2.533 -0.749 1.819 C -0.749 1.105 -0.499 0.499 0 0" stroke-linecap="round" />
</g>
</g>
</g>
<g transform="matrix(1.9211538461538462 0 0 1.9211538461538462 639.9577346153847 680.9565079994256)" id="text-logo"  >
<g style=""  paint-order="stroke"   >
		<g transform="matrix(1 0 0 1 0 0)" id="text-logo-path-0"  >
<path style="stroke: none; stroke-width: 0; stroke-dasharray: none; stroke-linecap: butt; stroke-dashoffset: 0; stroke-linejoin: miter; stroke-miterlimit: 4; fill: rgb(12,68,100); fill-rule: nonzero; opacity: 1;"  paint-order="stroke"  transform=" translate(-311.76, 15.399999999999999)" d="M 2.2 0 L 9.68 0 L 9.68 -11.44 L 22.88 -11.44 L 22.88 -17.6 L 9.68 -17.6 L 9.68 -24.64 L 27.28 -24.64 L 27.28 -30.8 L 2.2 -30.8 Z M 57.9 0 L 65.38 0 L 53.72 -30.8 L 45.8 -30.8 L 34.14 0 L 41.62 0 L 43.78 -5.72 L 55.75 -5.72 Z M 53.42 -11.88 L 46.11 -11.88 L 49.76 -21.52 Z M 92.18 0 L 100.28 0 L 107.45 -17.12 L 107.45 0 L 114.93 0 L 114.93 -30.8 L 105.69 -30.8 L 96.23 -8.18 L 86.77 -30.8 L 77.53 -30.8 L 77.53 0 L 85.01 0 L 85.01 -17.12 Z M 127.07 0 L 134.55 0 L 134.55 -30.8 L 127.07 -30.8 Z M 146.7 0 L 171.78 0 L 171.78 -6.16 L 154.18 -6.16 L 154.18 -30.8 L 146.7 -30.8 Z M 187.44 -11.88 L 187.44 0 L 194.92 0 L 194.92 -11.88 L 206.8 -30.8 L 198.88 -30.8 L 191.18 -18.52 L 183.48 -30.8 L 175.56 -30.8 Z M 235.49 0 L 260.57 0 L 260.57 -6.16 L 242.97 -6.16 L 242.97 -30.8 L 235.49 -30.8 Z M 272.71 0 L 280.19 0 L 280.19 -30.8 L 272.71 -30.8 Z M 292.34 0 L 299.82 0 L 299.82 -11.44 L 313.02 -11.44 L 313.02 -17.6 L 299.82 -17.6 L 299.82 -24.64 L 317.42 -24.64 L 317.42 -30.8 L 292.34 -30.8 Z M 329.56 0 L 354.64 0 L 354.64 -6.16 L 337.04 -6.16 L 337.04 -12.32 L 350.24 -12.32 L 350.24 -18.48 L 337.04 -18.48 L 337.04 -24.64 L 354.64 -24.64 L 354.64 -30.8 L 329.56 -30.8 Z M 399.21 0.44 C 409.24 0.44 414.26 -3.21 414.26 -10.52 L 406.78 -10.52 C 406.78 -7.35 403.26 -5.72 399.21 -5.72 C 393.54 -5.72 390.81 -8.62 390.81 -15.44 C 390.81 -22 393.36 -25.08 399.21 -25.08 C 403.48 -25.08 406.82 -23.76 406.82 -20.24 L 414.3 -20.24 C 413.78 -27.59 408.01 -31.24 399.21 -31.24 C 388.48 -31.24 383.33 -26.4 383.33 -15.44 C 383.33 -4.71 388.17 0.44 399.21 0.44 Z M 448.45 0 L 455.93 0 L 455.93 -30.8 L 448.45 -30.8 L 448.45 -18.48 L 433.93 -18.48 L 433.93 -30.8 L 426.45 -30.8 L 426.45 0 L 433.93 0 L 433.93 -12.32 L 448.45 -12.32 Z M 482.86 0.44 C 492.71 0.44 497.6 -4.18 497.6 -14.34 L 497.55 -30.8 L 490.07 -30.8 L 490.07 -12.98 C 490.07 -8.1 487.78 -5.72 482.86 -5.72 C 477.97 -5.72 475.6 -8.01 475.6 -12.98 L 475.55 -30.8 L 468.07 -30.8 L 468.07 -14.34 C 468.07 -4.49 472.69 0.44 482.86 0.44 Z M 509.74 0 L 517.22 0 L 517.22 -10.12 L 522.81 -10.12 L 528.66 0 L 536.58 0 L 530.33 -10.82 C 534.12 -12.14 536.01 -15.4 536.01 -20.55 C 536.01 -27.37 532.58 -30.8 525.71 -30.8 L 509.74 -30.8 Z M 525.67 -16.28 L 517.22 -16.28 L 517.22 -24.64 L 525.67 -24.64 C 527.47 -24.64 528.53 -23.28 528.53 -20.5 C 528.53 -17.69 527.56 -16.28 525.67 -16.28 Z M 564.61 0.44 C 574.64 0.44 579.66 -3.21 579.66 -10.52 L 572.18 -10.52 C 572.18 -7.35 568.66 -5.72 564.61 -5.72 C 558.93 -5.72 556.2 -8.62 556.2 -15.44 C 556.2 -22 558.76 -25.08 564.61 -25.08 C 568.88 -25.08 572.22 -23.76 572.22 -20.24 L 579.7 -20.24 C 579.17 -27.59 573.41 -31.24 564.61 -31.24 C 553.87 -31.24 548.72 -26.4 548.72 -15.44 C 548.72 -4.71 553.56 0.44 564.61 0.44 Z M 613.84 0 L 621.32 0 L 621.32 -30.8 L 613.84 -30.8 L 613.84 -18.48 L 599.32 -18.48 L 599.32 -30.8 L 591.84 -30.8 L 591.84 0 L 599.32 0 L 599.32 -12.32 L 613.84 -12.32 Z" stroke-linecap="round" />
</g>
</g>
</g>
<g transform="matrix(1.9211538461538462 0 0 1.9211538461538462 640.1152692307694 763.3298983071179)" id="tagline-b7380f57-5057-4972-b5fb-96fedfe3b163-logo"  >
<g style=""  paint-order="stroke"   >
		<g transform="matrix(1 0 0 1 0 0)" id="tagline-b7380f57-5057-4972-b5fb-96fedfe3b163-logo-path-0"  >
<path style="stroke: none; stroke-width: 0; stroke-dasharray: none; stroke-linecap: butt; stroke-dashoffset: 0; stroke-linejoin: miter; stroke-miterlimit: 4; fill: rgb(12,68,100); fill-rule: nonzero; opacity: 1;"  paint-order="stroke"  transform=" translate(-242.1, 10.5)" d="M 5.52 -9.3 L 11.37 -9.3 C 13.35 -9.3 14.37 -8.37 14.37 -6.78 C 14.37 -5.13 13.35 -4.2 11.37 -4.2 L 5.52 -4.2 Z M 1.32 -2.1 C 1.32 -0.93 2.25 0 3.42 0 L 11.37 0 C 15.27 0 18.57 -2.97 18.57 -6.78 C 18.57 -8.79 17.61 -10.56 16.14 -11.79 C 16.89 -12.75 17.31 -13.95 17.31 -15.18 C 17.31 -18.3 14.52 -21 10.86 -21 L 3.42 -21 C 2.25 -21 1.32 -20.07 1.32 -18.9 Z M 5.52 -13.5 L 5.52 -16.8 L 10.86 -16.8 C 12.48 -16.8 13.11 -16.26 13.11 -15.18 C 13.11 -14.04 12.48 -13.5 10.86 -13.5 Z M 44.73 -19.11 L 44.73 -15.24 C 44.73 -12.36 42.93 -10.56 40.05 -10.56 C 37.2 -10.56 35.4 -12.36 35.4 -15.24 L 35.4 -19.11 C 35.4 -20.28 34.47 -21.21 33.3 -21.21 C 32.13 -21.21 31.2 -20.28 31.2 -19.11 L 31.2 -15.24 C 31.2 -11.04 34.08 -7.56 37.95 -6.6 L 37.95 -6.57 L 37.98 -1.89 C 37.98 -0.72 38.91 0.21 40.08 0.21 C 41.25 0.21 42.18 -0.72 42.18 -1.89 L 42.15 -6.57 L 42.15 -6.6 C 46.05 -7.56 48.93 -11.04 48.93 -15.24 L 48.93 -19.11 C 48.93 -20.28 48 -21.21 46.83 -21.21 C 45.66 -21.21 44.73 -20.28 44.73 -19.11 Z M 87.39 -1.89 L 87.39 -16.8 L 90.9 -16.8 C 92.07 -16.8 93 -17.73 93 -18.9 C 93 -20.07 92.07 -21 90.9 -21 L 79.65 -21 C 78.48 -21 77.55 -20.07 77.55 -18.9 C 77.55 -17.73 78.48 -16.8 79.65 -16.8 L 83.19 -16.8 L 83.19 -1.89 C 83.19 -0.72 84.12 0.21 85.29 0.21 C 86.46 0.21 87.39 -0.72 87.39 -1.89 Z M 109.83 -1.89 L 109.83 -8.7 L 118.53 -8.7 L 118.53 -1.89 C 118.53 -0.72 119.46 0.21 120.63 0.21 C 121.8 0.21 122.73 -0.72 122.73 -1.89 L 122.73 -19.11 C 122.73 -20.28 121.8 -21.21 120.63 -21.21 C 119.46 -21.21 118.53 -20.28 118.53 -19.11 L 118.53 -12.9 L 109.83 -12.9 L 109.83 -19.11 C 109.83 -20.28 108.9 -21.21 107.73 -21.21 C 106.56 -21.21 105.63 -20.28 105.63 -19.11 L 105.63 -1.89 C 105.63 -0.72 106.56 0.21 107.73 0.21 C 108.9 0.21 109.83 -0.72 109.83 -1.89 Z M 137.49 0 L 147.12 0 C 148.29 0 149.22 -0.93 149.22 -2.1 C 149.22 -3.27 148.29 -4.2 147.12 -4.2 L 139.56 -4.2 L 139.56 -8.7 L 145.92 -8.7 C 147.09 -8.7 148.02 -9.63 148.02 -10.8 C 148.02 -11.97 147.09 -12.9 145.92 -12.9 L 139.56 -12.9 L 139.56 -16.8 L 147.12 -16.8 C 148.29 -16.8 149.22 -17.73 149.22 -18.9 C 149.22 -20.07 148.29 -21 147.12 -21 L 137.49 -21 L 137.49 -21 L 137.46 -21 C 136.29 -21 135.36 -20.07 135.36 -18.9 L 135.36 -2.1 C 135.36 -0.93 136.29 0 137.46 0 Z M 187.47 -19.11 L 187.47 -6.81 C 187.47 -5.01 186.54 -4.08 184.77 -4.08 C 182.97 -4.08 182.04 -5.01 182.04 -6.81 L 182.04 -19.11 C 182.04 -20.28 181.11 -21.21 179.94 -21.21 C 178.77 -21.21 177.84 -20.28 177.84 -19.11 L 177.84 -6.81 C 177.84 -2.97 180.93 0.12 184.77 0.12 C 186.63 0.12 188.34 -0.63 189.57 -1.83 C 190.83 -0.63 192.51 0.12 194.4 0.12 C 198.21 0.12 201.3 -2.97 201.3 -6.81 L 201.3 -19.11 C 201.3 -20.28 200.37 -21.21 199.2 -21.21 C 198.03 -21.21 197.1 -20.28 197.1 -19.11 L 197.1 -6.81 C 197.1 -5.01 196.17 -4.08 194.4 -4.08 C 192.6 -4.08 191.67 -5.01 191.67 -6.81 L 191.67 -19.11 C 191.67 -20.28 190.74 -21.21 189.57 -21.21 C 188.4 -21.21 187.47 -20.28 187.47 -19.11 Z M 224.55 -4.08 C 220.71 -4.08 218.13 -6.66 218.13 -10.5 C 218.13 -14.34 220.71 -16.92 224.55 -16.92 C 228.39 -16.92 230.97 -14.34 230.97 -10.5 C 230.97 -6.66 228.39 -4.08 224.55 -4.08 Z M 213.93 -10.5 C 213.93 -4.62 218.67 0.12 224.55 0.12 C 230.43 0.12 235.17 -4.62 235.17 -10.5 C 235.17 -16.38 230.43 -21.12 224.55 -21.12 C 218.67 -21.12 213.93 -16.38 213.93 -10.5 Z M 252 -1.89 L 252 -6.72 L 255.69 -6.72 L 255.84 -6.45 L 259.32 -0.84 C 259.68 -0.24 260.34 0.12 261.09 0.12 C 262.23 0.12 263.19 -0.81 263.19 -1.98 C 263.19 -2.37 263.07 -2.76 262.86 -3.09 L 260.16 -7.44 C 262.65 -8.61 264.42 -11.01 264.42 -13.89 C 264.42 -17.88 260.94 -21 256.83 -21 L 249.9 -21 C 248.73 -21 247.8 -20.07 247.8 -18.9 L 247.8 -1.89 C 247.8 -0.72 248.73 0.21 249.9 0.21 C 251.07 0.21 252 -0.72 252 -1.89 Z M 252 -10.92 L 252 -16.8 L 256.83 -16.8 C 259.02 -16.8 260.22 -15.72 260.22 -13.89 C 260.22 -12 259.02 -10.92 256.83 -10.92 Z M 277.05 -2.1 C 277.05 -0.93 277.98 0 279.15 0 L 283.5 0 C 289.74 0 294.9 -4.65 294.9 -10.5 C 294.9 -16.35 289.74 -21 283.5 -21 L 279.15 -21 C 277.98 -21 277.05 -20.07 277.05 -18.9 Z M 281.25 -4.2 L 281.25 -16.8 L 283.5 -16.8 C 287.82 -16.8 290.7 -14.19 290.7 -10.5 C 290.7 -6.81 287.82 -4.2 283.5 -4.2 Z M 334.14 -4.08 C 330.3 -4.08 327.72 -6.66 327.72 -10.5 C 327.72 -14.34 330.3 -16.92 334.14 -16.92 C 337.98 -16.92 340.56 -14.34 340.56 -10.5 C 340.56 -6.66 337.98 -4.08 334.14 -4.08 Z M 323.52 -10.5 C 323.52 -4.62 328.26 0.12 334.14 0.12 C 340.02 0.12 344.76 -4.62 344.76 -10.5 C 344.76 -16.38 340.02 -21.12 334.14 -21.12 C 328.26 -21.12 323.52 -16.38 323.52 -10.5 Z M 361.59 -1.89 L 361.59 -7.8 L 367.95 -7.8 C 369.12 -7.8 370.05 -8.73 370.05 -9.9 C 370.05 -11.07 369.12 -12 367.95 -12 L 361.59 -12 L 361.59 -16.8 L 369.15 -16.8 C 370.32 -16.8 371.25 -17.73 371.25 -18.9 C 371.25 -20.07 370.32 -21 369.15 -21 L 359.49 -21 C 358.32 -21 357.39 -20.07 357.39 -18.9 L 357.39 -1.89 C 357.39 -0.72 358.32 0.21 359.49 0.21 C 360.66 0.21 361.59 -0.72 361.59 -1.89 Z M 412.38 -7.86 L 414.33 -7.86 L 414.33 -5.37 C 413.25 -4.5 412.08 -4.08 410.49 -4.08 C 406.65 -4.08 404.07 -6.69 404.07 -10.5 C 404.07 -14.31 406.65 -16.92 410.49 -16.92 C 411.84 -16.92 412.89 -16.62 413.82 -16.02 C 414.15 -15.78 414.54 -15.66 414.96 -15.66 C 416.13 -15.66 417.06 -16.62 417.06 -17.76 C 417.06 -18.51 416.67 -19.17 416.07 -19.53 C 414.45 -20.52 412.56 -21.12 410.49 -21.12 C 404.61 -21.12 399.87 -16.35 399.87 -10.5 C 399.87 -4.65 404.61 0.12 410.49 0.12 C 413.34 0.12 415.89 -0.99 417.75 -2.79 C 418.23 -3.21 418.53 -3.87 418.53 -4.53 L 418.53 -9.69 C 418.53 -11.04 417.51 -12.06 416.16 -12.06 L 412.38 -12.06 C 411.21 -12.06 410.28 -11.13 410.28 -9.96 C 410.28 -8.79 411.21 -7.86 412.38 -7.86 Z M 441.78 -4.08 C 437.94 -4.08 435.36 -6.66 435.36 -10.5 C 435.36 -14.34 437.94 -16.92 441.78 -16.92 C 445.62 -16.92 448.2 -14.34 448.2 -10.5 C 448.2 -6.66 445.62 -4.08 441.78 -4.08 Z M 431.16 -10.5 C 431.16 -4.62 435.9 0.12 441.78 0.12 C 447.66 0.12 452.4 -4.62 452.4 -10.5 C 452.4 -16.38 447.66 -21.12 441.78 -21.12 C 435.9 -21.12 431.16 -16.38 431.16 -10.5 Z M 465.03 -2.1 C 465.03 -0.93 465.96 0 467.13 0 L 471.48 0 C 477.72 0 482.88 -4.65 482.88 -10.5 C 482.88 -16.35 477.72 -21 471.48 -21 L 467.13 -21 C 465.96 -21 465.03 -20.07 465.03 -18.9 Z M 469.23 -4.2 L 469.23 -16.8 L 471.48 -16.8 C 475.8 -16.8 478.68 -14.19 478.68 -10.5 C 478.68 -6.81 475.8 -4.2 471.48 -4.2 Z" stroke-linecap="round" />
</g>
</g>
</g>
</svg>